<?xml version="1.0" standalone="no"?><!DOCTYPE svg PUBLIC "-//W3C//DTD SVG 1.1//EN" "http://www.w3.org/Graphics/SVG/1.1/DTD/svg11.dtd"><svg t="1565075415669" class="icon" viewBox="0 0 1024 1024" version="1.1" xmlns="http://www.w3.org/2000/svg" p-id="8528" xmlns:xlink="http://www.w3.org/1999/xlink" width="200" height="200"><defs><style type="text/css"></style></defs><path d="M517 930.6H176c-31 0-56.2-24.8-56.2-55.3V120.5c0-30.5 25.2-55.3 56.2-55.3h591.4c31 0 56.2 24.8 56.2 55.3V498c0 11.3-9.1 20.4-20.4 20.4-11.3 0-20.4-9.1-20.4-20.4V120.5c0-7.9-7.1-14.6-15.5-14.6H176c-8.4 0-15.5 6.7-15.5 14.6v754.8c0 7.9 7.1 14.6 15.5 14.6h341c11.3 0 20.4 9.1 20.4 20.4s-9.2 20.3-20.4 20.3z" fill="#ffffff" p-id="8529"></path><path d="M641.9 345.6H330.1c-15 0-27.2-12.2-27.2-27.2s12.2-27.2 27.2-27.2h311.8c15 0 27.2 12.2 27.2 27.2s-12.3 27.2-27.2 27.2zM506.9 513.1H330.1c-15 0-27.2-12.2-27.2-27.2s12.2-27.2 27.2-27.2h176.8c15 0 27.2 12.2 27.2 27.2s-12.2 27.2-27.2 27.2zM783.9 580.5c63.4 10.6 114.1 60.3 126.2 123.4H783.9V580.5m-25.5-29.3c-0.6 0-1.1 0.1-1.7 0.1V731H940c-1-99.5-81.9-179.8-181.6-179.8z" fill="#ffffff" p-id="8530"></path><path d="M908.4 768.1c0 102.8-83.3 186.1-186.1 186.1s-186.1-83.3-186.1-186.1S619.5 582 722.3 582v186.1h186.1z" fill="#ffffff" p-id="8531"></path></svg>